<svg width="252" height="40" viewBox="0 0 252 40" fill="none" xmlns="http://www.w3.org/2000/svg">
<path fill-rule="evenodd" clip-rule="evenodd" d="M0 0L32.3502 40C43.345 40 52.2581 31.0457 52.2581 20C52.2581 8.95431 43.345 0 32.3502 0H0ZM34.5842 34.8332C41.7706 33.75 47.2811 27.5215 47.2811 20C47.2811 11.7157 40.5963 5 32.3502 5H24.159C27.7053 8.98067 29.8617 14.2373 29.8617 20C29.8617 22.6061 29.4198 25.1114 28.6068 27.4423L34.5842 34.8332ZM24.6936 22.6038C24.8195 21.7547 24.8848 20.8853 24.8848 20C24.8848 13.6342 21.5015 8.06224 16.4428 5H10.4564L24.6936 22.6038Z" fill="currentColor"/>
<path d="M64.116 32V10.4H81.516C82.676 10.4 83.666 10.81 84.486 11.63C85.306 12.45 85.716 13.43 85.716 14.57V27.83C85.716 28.97 85.306 29.95 84.486 30.77C83.666 31.59 82.676 32 81.516 32H64.116ZM69.126 28.01H80.676C81.216 28.01 81.526 27.98 81.606 27.92C81.686 27.84 81.726 27.52 81.726 26.96V15.44C81.726 14.88 81.686 14.57 81.606 14.51C81.526 14.43 81.216 14.39 80.676 14.39H69.126C68.566 14.39 68.246 14.43 68.166 14.51C68.106 14.57 68.076 14.88 68.076 15.44V26.96C68.076 27.52 68.106 27.84 68.166 27.92C68.246 27.98 68.566 28.01 69.126 28.01Z" fill="currentColor"/>
<path d="M89.0455 32V10.43H106.445C107.605 10.43 108.595 10.85 109.415 11.69C110.235 12.51 110.645 13.48 110.645 14.6V20.42C110.645 21.56 110.235 22.54 109.415 23.36C108.595 24.18 107.605 24.59 106.445 24.59H105.275L110.615 30.89V32H106.295L100.085 24.59L93.0055 24.62V32H89.0455ZM94.0555 20.6H105.605C106.146 20.6 106.445 20.57 106.505 20.51C106.585 20.45 106.625 20.14 106.625 19.58V15.44C106.625 14.88 106.585 14.57 106.505 14.51C106.445 14.43 106.146 14.39 105.605 14.39H94.0555C93.4955 14.39 93.1755 14.43 93.0955 14.51C93.0355 14.57 93.0055 14.88 93.0055 15.44V19.58C93.0055 20.14 93.0355 20.45 93.0955 20.51C93.1755 20.57 93.4955 20.6 94.0555 20.6Z" fill="currentColor"/>
<path d="M113.711 32V10.4H117.641V32H113.711Z" fill="currentColor"/>
<path d="M132.127 32L119.617 10.4H124.237L133.897 27.2L143.587 10.4H148.177L135.667 32H132.127Z" fill="currentColor"/>
<path d="M150.395 32V10.4H170.285V14.39H154.385V19.19H167.165V23.18H154.385V28.01H170.285V32H150.395Z" fill="currentColor"/>
<path d="M175.666 32C174.999 32 174.433 31.7667 173.966 31.3C173.499 30.8333 173.266 30.2667 173.266 29.6V29.04H174.886V29.6C174.886 29.8133 174.959 30 175.106 30.16C175.266 30.3067 175.453 30.38 175.666 30.38H185.266C185.479 30.38 185.659 30.3067 185.806 30.16C185.966 30 186.046 29.8133 186.046 29.6V26.38C186.046 26.1667 185.966 25.9867 185.806 25.84C185.659 25.6933 185.479 25.62 185.266 25.62H175.666C174.999 25.62 174.433 25.3867 173.966 24.92C173.499 24.44 173.266 23.8733 173.266 23.22V20C173.266 19.3333 173.499 18.7667 173.966 18.3C174.433 17.8333 174.999 17.6 175.666 17.6H185.266C185.933 17.6 186.499 17.8333 186.966 18.3C187.433 18.7667 187.666 19.3333 187.666 20V20.56H186.046V20C186.046 19.7867 185.966 19.6067 185.806 19.46C185.659 19.3 185.479 19.22 185.266 19.22H175.666C175.453 19.22 175.266 19.3 175.106 19.46C174.959 19.6067 174.886 19.7867 174.886 20V23.22C174.886 23.4333 174.959 23.6133 175.106 23.76C175.266 23.9067 175.453 23.98 175.666 23.98H185.266C185.933 23.98 186.499 24.22 186.966 24.7C187.433 25.1667 187.666 25.7267 187.666 26.38V29.6C187.666 30.2667 187.433 30.8333 186.966 31.3C186.499 31.7667 185.933 32 185.266 32H175.666Z" fill="currentColor"/>
<path d="M189.851 32V20C189.851 19.3333 190.085 18.7667 190.551 18.3C191.018 17.8333 191.585 17.6 192.251 17.6H201.851C202.518 17.6 203.085 17.8333 203.551 18.3C204.018 18.7667 204.251 19.3333 204.251 20V32H202.631V26.74H191.471V32H189.851ZM191.471 25.12H202.631V20C202.631 19.7867 202.551 19.6067 202.391 19.46C202.245 19.3 202.065 19.22 201.851 19.22H192.251C192.038 19.22 191.851 19.3 191.691 19.46C191.545 19.6067 191.471 19.7867 191.471 20V25.12Z" fill="currentColor"/>
<path d="M206.55 32V17.58H208.17V30.38H220.95V32H206.55Z" fill="currentColor"/>
<path d="M222.156 32V17.6H235.296V19.22H223.776V23.98H233.036V25.62H223.776V30.38H235.296V32H222.156Z" fill="currentColor"/>
<path d="M239.729 32C239.062 32 238.495 31.7667 238.029 31.3C237.562 30.8333 237.329 30.2667 237.329 29.6V29.04H238.949V29.6C238.949 29.8133 239.022 30 239.169 30.16C239.329 30.3067 239.515 30.38 239.729 30.38H249.329C249.542 30.38 249.722 30.3067 249.869 30.16C250.029 30 250.109 29.8133 250.109 29.6V26.38C250.109 26.1667 250.029 25.9867 249.869 25.84C249.722 25.6933 249.542 25.62 249.329 25.62H239.729C239.062 25.62 238.495 25.3867 238.029 24.92C237.562 24.44 237.329 23.8733 237.329 23.22V20C237.329 19.3333 237.562 18.7667 238.029 18.3C238.495 17.8333 239.062 17.6 239.729 17.6H249.329C249.995 17.6 250.562 17.8333 251.029 18.3C251.495 18.7667 251.729 19.3333 251.729 20V20.56H250.109V20C250.109 19.7867 250.029 19.6067 249.869 19.46C249.722 19.3 249.542 19.22 249.329 19.22H239.729C239.515 19.22 239.329 19.3 239.169 19.46C239.022 19.6067 238.949 19.7867 238.949 20V23.22C238.949 23.4333 239.022 23.6133 239.169 23.76C239.329 23.9067 239.515 23.98 239.729 23.98H249.329C249.995 23.98 250.562 24.22 251.029 24.7C251.495 25.1667 251.729 25.7267 251.729 26.38V29.6C251.729 30.2667 251.495 30.8333 251.029 31.3C250.562 31.7667 249.995 32 249.329 32H239.729Z" fill="currentColor"/>
</svg>
