<svg width="146" height="40" viewBox="0 0 146 40" fill="none" xmlns="http://www.w3.org/2000/svg">
<path d="M74.9242 26L73.889 22.6016H68.684L67.6488 26H64.3871L69.4261 11.6641H73.1273L78.1859 26H74.9242ZM73.1664 20.0625C72.2094 16.9831 71.669 15.2415 71.5453 14.8379C71.4281 14.4342 71.3435 14.1152 71.2914 13.8809C71.0765 14.7142 70.4613 16.7747 69.4457 20.0625H73.1664Z" fill="black"/>
<path d="M86.8926 26L86.4922 24.6035H86.3359C86.0169 25.1113 85.5644 25.5052 84.9785 25.7852C84.3926 26.0586 83.7252 26.1953 82.9765 26.1953C81.694 26.1953 80.7272 25.8535 80.0761 25.1699C79.4251 24.4798 79.0996 23.4902 79.0996 22.2012V15.082H82.0781V21.459C82.0781 22.2467 82.2181 22.8392 82.498 23.2363C82.778 23.627 83.2239 23.8223 83.8359 23.8223C84.6692 23.8223 85.2715 23.5456 85.6426 22.9922C86.0136 22.4323 86.1992 21.5078 86.1992 20.2188V15.082H89.1777V26H86.8926Z" fill="black"/>
<path d="M96.3023 23.8223C96.8232 23.8223 97.4482 23.7083 98.1773 23.4805V25.6973C97.4351 26.0293 96.5237 26.1953 95.4429 26.1953C94.2515 26.1953 93.3824 25.8958 92.8355 25.2969C92.2952 24.6914 92.025 23.7865 92.025 22.582V17.3184H90.5992V16.0586L92.2398 15.0625L93.0992 12.7578H95.0035V15.082H98.0601V17.3184H95.0035V22.582C95.0035 23.0052 95.1207 23.3177 95.3551 23.5195C95.5959 23.7214 95.9117 23.8223 96.3023 23.8223Z" fill="black"/>
<path d="M102.167 20.5215C102.167 21.6022 102.343 22.4193 102.695 22.9727C103.053 23.526 103.632 23.8027 104.433 23.8027C105.227 23.8027 105.797 23.5293 106.142 22.9824C106.493 22.429 106.669 21.6087 106.669 20.5215C106.669 19.4408 106.493 18.6302 106.142 18.0898C105.79 17.5495 105.214 17.2793 104.413 17.2793C103.619 17.2793 103.046 17.5495 102.695 18.0898C102.343 18.6237 102.167 19.4342 102.167 20.5215ZM109.716 20.5215C109.716 22.2988 109.247 23.6888 108.31 24.6914C107.372 25.694 106.067 26.1953 104.394 26.1953C103.346 26.1953 102.421 25.9674 101.62 25.5117C100.82 25.0495 100.204 24.3887 99.7746 23.5293C99.3449 22.6699 99.1301 21.6673 99.1301 20.5215C99.1301 18.7376 99.5956 17.3509 100.527 16.3613C101.458 15.3717 102.766 14.877 104.452 14.877C105.5 14.877 106.425 15.1048 107.226 15.5605C108.027 16.0163 108.642 16.6706 109.071 17.5234C109.501 18.3763 109.716 19.3757 109.716 20.5215Z" fill="black"/>
<path d="M120.034 22.2012C120.034 23.4577 119.578 24.4375 118.667 25.1406C117.755 25.8438 116.518 26.1953 114.956 26.1953C113.263 26.1953 111.961 25.9772 111.05 25.541V23.9395C111.636 24.1868 112.274 24.3822 112.964 24.5254C113.654 24.6686 114.337 24.7402 115.014 24.7402C116.121 24.7402 116.955 24.5319 117.514 24.1152C118.074 23.6921 118.354 23.1061 118.354 22.3574C118.354 21.8626 118.253 21.459 118.052 21.1465C117.856 20.8275 117.524 20.5345 117.055 20.2676C116.593 20.0007 115.887 19.6979 114.936 19.3594C113.608 18.8841 112.658 18.321 112.085 17.6699C111.518 17.0189 111.235 16.1693 111.235 15.1211C111.235 14.0208 111.649 13.1452 112.475 12.4941C113.302 11.8431 114.396 11.5176 115.757 11.5176C117.176 11.5176 118.481 11.778 119.673 12.2988L119.155 13.7441C117.977 13.2493 116.831 13.002 115.718 13.002C114.839 13.002 114.152 13.1908 113.657 13.5684C113.162 13.946 112.915 14.4701 112.915 15.1406C112.915 15.6354 113.006 16.0423 113.188 16.3613C113.371 16.6738 113.677 16.9635 114.106 17.2305C114.542 17.4909 115.206 17.7806 116.098 18.0996C117.596 18.6335 118.624 19.2064 119.184 19.8184C119.751 20.4303 120.034 21.2246 120.034 22.2012Z" fill="black"/>
<path d="M128.692 26L128.37 24.4766H128.291C127.758 25.1471 127.224 25.6029 126.69 25.8438C126.162 26.0781 125.502 26.1953 124.707 26.1953C123.646 26.1953 122.813 25.9219 122.207 25.375C121.608 24.8281 121.309 24.0501 121.309 23.041C121.309 20.8796 123.037 19.7467 126.495 19.6426L128.311 19.584V18.9199C128.311 18.0801 128.129 17.4616 127.764 17.0645C127.406 16.6608 126.83 16.459 126.036 16.459C125.144 16.459 124.134 16.7324 123.008 17.2793L122.51 16.0391C123.037 15.7526 123.614 15.528 124.239 15.3652C124.87 15.2025 125.502 15.1211 126.133 15.1211C127.409 15.1211 128.353 15.4043 128.965 15.9707C129.584 16.5371 129.893 17.4453 129.893 18.6953V26H128.692ZM125.03 24.8574C126.039 24.8574 126.83 24.5807 127.403 24.0273C127.982 23.474 128.272 22.6992 128.272 21.7031V20.7363L126.651 20.8047C125.362 20.8503 124.431 21.0521 123.858 21.4102C123.291 21.7617 123.008 22.3118 123.008 23.0605C123.008 23.6465 123.184 24.0924 123.536 24.3984C123.894 24.7044 124.392 24.8574 125.03 24.8574Z" fill="black"/>
<path d="M134.264 26H132.643V10.8047H134.264V26Z" fill="black"/>
<path d="M141.623 26.1953C140.041 26.1953 138.791 25.7135 137.873 24.75C136.961 23.7865 136.505 22.4486 136.505 20.7363C136.505 19.0111 136.929 17.6406 137.775 16.625C138.628 15.6094 139.77 15.1016 141.203 15.1016C142.544 15.1016 143.605 15.5443 144.386 16.4297C145.168 17.3086 145.558 18.4707 145.558 19.916V20.9414H138.185C138.218 22.1979 138.533 23.1517 139.132 23.8027C139.738 24.4538 140.587 24.7793 141.681 24.7793C142.834 24.7793 143.973 24.5384 145.099 24.0566V25.502C144.526 25.7493 143.983 25.9251 143.468 26.0293C142.961 26.14 142.345 26.1953 141.623 26.1953ZM141.183 16.459C140.324 16.459 139.637 16.7389 139.123 17.2988C138.615 17.8587 138.315 18.6335 138.224 19.623H143.82C143.82 18.6009 143.592 17.8197 143.136 17.2793C142.681 16.7324 142.03 16.459 141.183 16.459Z" fill="black"/>
<path fill-rule="evenodd" clip-rule="evenodd" d="M0 0L32.3502 40C43.345 40 52.2581 31.0457 52.2581 20C52.2581 8.9543 43.345 0 32.3502 0H0ZM34.5842 34.8332C41.7706 33.75 47.2811 27.5215 47.2811 20C47.2811 11.7157 40.5963 5 32.3502 5H24.159C27.7053 8.98067 29.8617 14.2373 29.8617 20C29.8617 22.6061 29.4198 25.1114 28.6068 27.4423L34.5842 34.8332ZM24.6936 22.6038C24.8195 21.7547 24.8848 20.8853 24.8848 20C24.8848 13.6342 21.5015 8.06224 16.4428 5H10.4564L24.6936 22.6038Z" fill="#202020"/>
</svg>
