<svg width="42" height="32" viewBox="0 0 42 32" fill="none" xmlns="http://www.w3.org/2000/svg">
<path fill-rule="evenodd" clip-rule="evenodd" d="M0 0L26 32C34.8366 32 42 24.8366 42 16C42 7.16344 34.8366 0 26 0H0ZM27.7955 27.8666C33.5712 27 38 22.0172 38 16C38 9.37258 32.6274 4 26 4H19.4166C22.2669 7.18454 24 11.3899 24 16C24 18.0849 23.6448 20.0891 22.9914 21.9539L27.7955 27.8666ZM19.8463 18.083C19.9476 17.4037 20 16.7082 20 16C20 10.9073 17.2808 6.44979 13.2152 4H8.40388L19.8463 18.083Z" fill="currentColor"/>
</svg>
