<svg width="30" height="30" viewBox="0 0 30 30" fill="none" xmlns="http://www.w3.org/2000/svg">
<circle cx="15" cy="15" r="15" fill="#DE070C"/>
<path d="M7.01303 15.2807L10.4616 16.5666L11.8059 20.8919C11.8644 21.1841 12.2151 21.2426 12.4489 21.0672L14.3778 19.4891C14.5531 19.3137 14.8454 19.3137 15.0792 19.4891L18.5277 22.0024C18.7615 22.1778 19.1122 22.0609 19.1707 21.7686L21.7425 9.49408C21.8009 9.20183 21.5087 8.90958 21.2164 9.02648L7.01303 14.5208C6.66232 14.6377 6.66232 15.1638 7.01303 15.2807ZM11.6306 15.9236L18.4108 11.7736C18.5277 11.7152 18.6446 11.8905 18.5277 11.949L12.975 17.1511C12.7996 17.3264 12.6242 17.5602 12.6242 17.8525L12.4489 19.2553C12.4489 19.4306 12.1566 19.4891 12.0982 19.2553L11.3968 16.6835C11.2214 16.3912 11.3384 16.0405 11.6306 15.9236Z" fill="#FDE6E7"/>
</svg>
