<svg width="36" height="37" viewBox="0 0 36 37" fill="none" xmlns="http://www.w3.org/2000/svg">
<g clip-path="url(#clip0)">
<path d="M22.9397 10.5607C22.3539 9.97487 22.3539 9.02513 22.9397 8.43934C23.5255 7.85355 24.4752 7.85355 25.061 8.43934L34.061 17.4393C34.6468 18.0251 34.6468 18.9749 34.061 19.5607L25.061 28.5607C24.4752 29.1464 23.5255 29.1464 22.9397 28.5607C22.3539 27.9749 22.3539 27.0251 22.9397 26.4393L29.3791 20H3.01654C2.17898 20 1.5 19.3284 1.5 18.5C1.5 17.6715 2.17898 17 3.01654 17H29.379L22.9397 10.5607Z" fill="white"/>
<ellipse cx="18.3479" cy="18.3869" rx="17.6521" ry="17.8869" fill="white"/>
<path d="M23.8675 9.9316C20.5035 9.28061 17.01 9.28061 13.6459 9.9316C12.158 10.2571 10.2819 12.0798 9.95841 13.512C9.37617 16.3112 9.37617 19.1755 9.95841 21.9748C10.3466 23.4069 12.2227 25.2297 13.6459 25.5552C13.7106 25.5552 13.7753 25.6203 13.7753 25.6854V29.7865C13.7753 29.9818 14.0341 30.112 14.1635 29.9167L16.1043 27.8987C16.1043 27.8987 17.6569 26.2712 17.9157 26.0108C17.9157 26.0108 17.9804 25.9457 18.0451 25.9457C19.9859 26.0108 21.9914 25.8155 23.9322 25.4901C25.4202 25.1646 27.2963 23.3418 27.6198 21.9097C28.202 19.1104 28.202 16.2461 27.6198 13.4469C27.2316 12.0798 25.3555 10.2571 23.8675 9.9316ZM23.9322 22.1701C23.6088 22.821 23.2206 23.3418 22.5737 23.6673C22.3796 23.7324 22.1855 23.7975 21.9914 23.8626C21.7326 23.7975 21.5386 23.7324 21.3445 23.6673C19.2743 22.821 17.3335 21.6493 15.7808 19.9567C14.9398 18.9802 14.2282 17.8736 13.6459 16.7018C13.3872 16.1159 13.1284 15.5951 12.9343 15.0093C12.7402 14.4885 13.0637 13.9677 13.3872 13.5771C13.7106 13.1865 14.0988 12.9261 14.5517 12.7308C14.8751 12.5355 15.1986 12.6657 15.4574 12.9261C15.9749 13.5771 16.4925 14.2281 16.8806 14.9442C17.1394 15.3998 17.0747 15.9206 16.6218 16.2461C16.4925 16.3112 16.4278 16.3763 16.2984 16.5065C16.2337 16.5716 16.1043 16.6367 16.0396 16.7669C15.9102 16.9622 15.9102 17.1575 15.9749 17.3528C16.4925 18.85 17.4629 20.0218 18.9508 20.6728C19.2096 20.803 19.4037 20.8681 19.7271 20.8681C20.18 20.803 20.3741 20.2822 20.6975 20.0218C21.021 19.7614 21.4092 19.7614 21.7973 19.9567C22.1208 20.152 22.4443 20.4124 22.8324 20.6728C23.1559 20.9332 23.4794 21.1285 23.8028 21.3889C23.9969 21.5191 24.0616 21.8446 23.9322 22.1701ZM21.2151 17.2877C21.0857 17.2877 21.1504 17.2877 21.2151 17.2877C20.9563 17.2877 20.8916 17.1575 20.8269 16.9622C20.8269 16.832 20.8269 16.6367 20.7622 16.5065C20.6975 16.2461 20.5682 15.9857 20.3094 15.7904C20.18 15.7253 20.0506 15.6602 19.9212 15.5951C19.7271 15.53 19.5978 15.53 19.4037 15.53C19.2096 15.4649 19.1449 15.3347 19.1449 15.1394C19.1449 15.0093 19.339 14.8791 19.4684 14.8791C20.5035 14.9442 21.2798 15.53 21.4092 16.7669C21.4092 16.832 21.4092 16.9622 21.4092 17.0273C21.4092 17.1575 21.3445 17.2877 21.2151 17.2877ZM20.5682 14.4234C20.2447 14.2932 19.9212 14.163 19.5331 14.0979C19.4037 14.0979 19.2096 14.0328 19.0802 14.0328C18.8861 14.0328 18.7567 13.9026 18.8214 13.7073C18.8214 13.512 18.9508 13.3818 19.1449 13.4469C19.7918 13.512 20.3741 13.6422 20.9563 13.9026C22.1208 14.4885 22.7677 15.4649 22.9618 16.7669C22.9618 16.832 22.9618 16.8971 22.9618 16.9622C22.9618 17.0924 22.9618 17.2226 22.9618 17.4179C22.9618 17.483 22.9618 17.5481 22.9618 17.6132C22.8971 17.8736 22.4443 17.9387 22.3796 17.6132C22.3796 17.5481 22.3149 17.4179 22.3149 17.3528C22.3149 16.7669 22.1855 16.181 21.9267 15.6602C21.5386 15.0744 21.0857 14.6838 20.5682 14.4234ZM24.0616 18.3293C23.8675 18.3293 23.7381 18.134 23.7381 17.9387C23.7381 17.5481 23.6734 17.1575 23.6088 16.7669C23.35 14.6838 21.6679 12.9912 19.6624 12.6657C19.339 12.6006 19.0155 12.6006 18.7567 12.5355C18.5627 12.5355 18.3039 12.5355 18.2392 12.2751C18.1745 12.0798 18.3686 11.8845 18.5627 11.8845C18.6273 11.8845 18.692 11.8845 18.692 11.8845C21.3445 11.9496 18.8214 11.8845 18.692 11.8845C21.4092 11.9496 23.6734 13.7724 24.1263 16.5065C24.191 16.9622 24.2557 17.4179 24.2557 17.9387C24.3851 18.134 24.2557 18.3293 24.0616 18.3293Z" fill="#DE070C"/>
</g>
<defs>
<clipPath id="clip0">
<rect width="36" height="36" fill="white" transform="translate(0 0.5)"/>
</clipPath>
</defs>
</svg>
