<svg width="40" height="36" viewBox="0 0 40 36" fill="none" xmlns="http://www.w3.org/2000/svg">
<path fill-rule="evenodd" clip-rule="evenodd" d="M20.5532 16.82C19.4527 15.2483 19.8347 13.0821 21.4063 11.9816L33.169 3.74532C34.7406 2.64482 36.9069 3.02678 38.0074 4.59847C39.1079 6.17016 38.7259 8.3364 37.1543 9.43691L25.3916 17.6732C23.8199 18.7737 21.6537 18.3917 20.5532 16.82Z" fill="#DE070C"/>
<g filter="url(#filter0_bii)">
<path d="M35.6672 17.8336C35.6672 27.6828 27.6828 35.6672 17.8336 35.6672C7.98436 35.6672 0 27.6828 0 17.8336C0 7.98436 7.98436 0 17.8336 0C27.6828 0 35.6672 7.98436 35.6672 17.8336Z" fill="black" fill-opacity="0.03"/>
</g>
<g filter="url(#filter1_bi)">
<path fill-rule="evenodd" clip-rule="evenodd" d="M17.8336 9.38C13.1648 9.38 9.38 13.1648 9.38 17.8336C9.38 22.5024 13.1648 26.2872 17.8336 26.2872C22.2195 26.2872 25.8269 22.9459 26.2463 18.6709C26.3275 17.8435 27.0641 17.2385 27.8916 17.3197C28.719 17.4008 29.324 18.1374 29.2428 18.9649C28.6736 24.7662 23.7838 29.298 17.8336 29.298C11.5019 29.298 6.36914 24.1652 6.36914 17.8336C6.36914 11.5019 11.5019 6.36914 17.8336 6.36914C19.2375 6.36914 20.5857 6.62217 21.8329 7.08643C22.612 7.37649 23.0086 8.24329 22.7185 9.02248C22.4284 9.80167 21.5617 10.1982 20.7825 9.90813C19.8663 9.56709 18.8735 9.38 17.8336 9.38Z" fill="black" fill-opacity="0.1"/>
</g>
<g filter="url(#filter2_bi)">
<path fill-rule="evenodd" clip-rule="evenodd" d="M17.6731 20.2326C17.3563 20.2447 17.033 20.1572 16.7532 19.9613L14.0321 18.0559C13.351 17.5791 13.1855 16.6404 13.6624 15.9593C14.1393 15.2782 15.078 15.1127 15.7591 15.5896L17.6733 16.93L25.2873 11.5987C25.9683 11.1218 26.907 11.2873 27.3839 11.9684C27.8608 12.6494 27.6953 13.5881 27.0142 14.065L18.5935 19.9613C18.3136 20.1573 17.9901 20.2448 17.6731 20.2326Z" fill="black" fill-opacity="0.1"/>
</g>
<defs>
<filter id="filter0_bii" x="-86" y="-86" width="207.667" height="207.667" filterUnits="userSpaceOnUse" color-interpolation-filters="sRGB">
<feFlood flood-opacity="0" result="BackgroundImageFix"/>
<feGaussianBlur in="BackgroundImage" stdDeviation="43"/>
<feComposite in2="SourceAlpha" operator="in" result="effect1_backgroundBlur"/>
<feBlend mode="normal" in="SourceGraphic" in2="effect1_backgroundBlur" result="shape"/>
<feColorMatrix in="SourceAlpha" type="matrix" values="0 0 0 0 0 0 0 0 0 0 0 0 0 0 0 0 0 0 127 0" result="hardAlpha"/>
<feOffset dy="4"/>
<feGaussianBlur stdDeviation="2"/>
<feComposite in2="hardAlpha" operator="arithmetic" k2="-1" k3="1"/>
<feColorMatrix type="matrix" values="0 0 0 0 1 0 0 0 0 1 0 0 0 0 1 0 0 0 0.15 0"/>
<feBlend mode="normal" in2="shape" result="effect2_innerShadow"/>
<feColorMatrix in="SourceAlpha" type="matrix" values="0 0 0 0 0 0 0 0 0 0 0 0 0 0 0 0 0 0 127 0" result="hardAlpha"/>
<feOffset/>
<feGaussianBlur stdDeviation="34"/>
<feComposite in2="hardAlpha" operator="arithmetic" k2="-1" k3="1"/>
<feColorMatrix type="matrix" values="0 0 0 0 1 0 0 0 0 1 0 0 0 0 1 0 0 0 0.05 0"/>
<feBlend mode="normal" in2="effect2_innerShadow" result="effect3_innerShadow"/>
</filter>
<filter id="filter1_bi" x="-81.6309" y="-81.6309" width="198.881" height="198.929" filterUnits="userSpaceOnUse" color-interpolation-filters="sRGB">
<feFlood flood-opacity="0" result="BackgroundImageFix"/>
<feGaussianBlur in="BackgroundImage" stdDeviation="44"/>
<feComposite in2="SourceAlpha" operator="in" result="effect1_backgroundBlur"/>
<feBlend mode="normal" in="SourceGraphic" in2="effect1_backgroundBlur" result="shape"/>
<feColorMatrix in="SourceAlpha" type="matrix" values="0 0 0 0 0 0 0 0 0 0 0 0 0 0 0 0 0 0 127 0" result="hardAlpha"/>
<feOffset dy="2"/>
<feGaussianBlur stdDeviation="1"/>
<feComposite in2="hardAlpha" operator="arithmetic" k2="-1" k3="1"/>
<feColorMatrix type="matrix" values="0 0 0 0 1 0 0 0 0 1 0 0 0 0 1 0 0 0 0.3 0"/>
<feBlend mode="normal" in2="shape" result="effect2_innerShadow"/>
</filter>
<filter id="filter2_bi" x="-74.61" y="-76.6737" width="190.266" height="184.907" filterUnits="userSpaceOnUse" color-interpolation-filters="sRGB">
<feFlood flood-opacity="0" result="BackgroundImageFix"/>
<feGaussianBlur in="BackgroundImage" stdDeviation="44"/>
<feComposite in2="SourceAlpha" operator="in" result="effect1_backgroundBlur"/>
<feBlend mode="normal" in="SourceGraphic" in2="effect1_backgroundBlur" result="shape"/>
<feColorMatrix in="SourceAlpha" type="matrix" values="0 0 0 0 0 0 0 0 0 0 0 0 0 0 0 0 0 0 127 0" result="hardAlpha"/>
<feOffset dy="2"/>
<feGaussianBlur stdDeviation="1"/>
<feComposite in2="hardAlpha" operator="arithmetic" k2="-1" k3="1"/>
<feColorMatrix type="matrix" values="0 0 0 0 1 0 0 0 0 1 0 0 0 0 1 0 0 0 0.3 0"/>
<feBlend mode="normal" in2="shape" result="effect2_innerShadow"/>
</filter>
</defs>
</svg>
