<svg width="65" height="64" viewBox="0 0 65 64" fill="none" xmlns="http://www.w3.org/2000/svg">
<g clip-path="url(#clip0)">
<path d="M32.4427 60.8681C16.587 60.8681 3.59684 47.8142 3.59684 31.9585C3.59684 28.3926 4.23362 25.0177 5.44349 21.8338L22.318 55.7739C22.509 56.2197 22.8274 56.6017 23.3368 56.6017C23.8463 56.6017 24.1646 56.2197 24.3557 55.7739L32.1243 38.39C32.188 38.1989 32.3154 38.0079 32.5064 38.0079C32.6974 38.0079 32.7611 38.1989 32.8885 38.39L40.6571 55.7739C40.8481 56.2197 41.1665 56.6017 41.6759 56.6017C42.1854 56.6017 42.5037 56.2197 42.6948 55.7739L59.5693 21.8338C60.7792 25.0177 61.4159 28.3926 61.4159 31.9585C61.2886 47.8142 48.2984 60.8681 32.4427 60.8681ZM32.4427 25.3998C32.2517 25.3998 32.188 25.2087 32.0607 25.0177L23.0185 4.64091C25.9476 3.55839 29.1315 2.9853 32.4427 2.9853C35.7539 2.9853 38.9378 3.55839 41.867 4.64091L32.8248 25.0177C32.6974 25.2724 32.6337 25.3998 32.4427 25.3998ZM23.2095 46.3496C23.0185 46.3496 22.9548 46.1586 22.8274 45.9676L8.18162 16.4212C10.7924 12.4096 14.2947 9.03466 18.561 6.67859L29.1315 30.1756C29.2588 30.5576 29.5772 30.685 29.8956 30.685H34.9898C35.3719 30.685 35.6266 30.6213 35.8176 30.1756L46.3881 6.67859C50.5908 9.03466 54.1567 12.4096 56.7675 16.4212L41.9943 45.9676C41.9307 46.1586 41.8033 46.3496 41.6123 46.3496C41.4212 46.3496 41.3576 46.1586 41.2302 45.9676L35.6903 33.3594C35.4992 32.9137 35.2445 32.85 34.8625 32.85H29.7683C29.3862 32.85 29.1315 32.9137 28.9405 33.3594L23.5916 45.9676C23.5279 46.1586 23.4005 46.3496 23.2095 46.3496ZM32.4427 63.7973C50.0814 63.7973 64.2814 49.5972 64.2814 31.9585C64.2814 14.3199 50.0814 0.119812 32.4427 0.119812C14.8041 0.119812 0.604004 14.3199 0.604004 31.9585C0.604004 49.5972 14.8041 63.7973 32.4427 63.7973Z" fill="black"/>
</g>
<defs>
<clipPath id="clip0">
<rect width="64" height="64" fill="white" transform="translate(0.404785)"/>
</clipPath>
</defs>
</svg>
