<svg width="35" height="36" viewBox="0 0 35 36" fill="none" xmlns="http://www.w3.org/2000/svg">
<ellipse cx="17.252" cy="17.9789" rx="17.0521" ry="17.2789" fill="white"/>
<path d="M8.17242 18.3021L12.0928 19.7834L13.621 24.7659C13.6875 25.1025 14.0862 25.1699 14.352 24.9679L16.5447 23.1499C16.744 22.9479 17.0763 22.9479 17.342 23.1499L21.2624 26.0451C21.5282 26.2471 21.9269 26.1125 21.9933 25.7758L24.9169 11.6364C24.9834 11.2998 24.6512 10.9631 24.3189 11.0978L8.17242 17.4268C7.77374 17.5615 7.77374 18.1675 8.17242 18.3021ZM13.4217 19.0428L21.1295 14.2623C21.2624 14.195 21.3953 14.397 21.2624 14.4643L14.95 20.4567C14.7506 20.6587 14.5513 20.928 14.5513 21.2647L14.352 22.8806C14.352 23.0826 14.0197 23.1499 13.9533 22.8806L13.1559 19.9181C12.9566 19.5814 13.0895 19.1774 13.4217 19.0428Z" fill="#DE070C"/>
</svg>
