<svg width="30" height="30" viewBox="0 0 30 30" fill="none" xmlns="http://www.w3.org/2000/svg">
<g clip-path="url(#clip0)">
<path d="M19.1164 8.3839C18.6283 7.89574 18.6283 7.10429 19.1164 6.61613C19.6046 6.12798 20.396 6.12798 20.8842 6.61613L28.3842 14.1161C28.8723 14.6043 28.8723 15.3957 28.3842 15.8839L20.8842 23.3839C20.396 23.8721 19.6046 23.8721 19.1164 23.3839C18.6283 22.8957 18.6283 22.1043 19.1164 21.6161L24.4826 16.25H2.51379C1.81582 16.25 1.25 15.6904 1.25 15C1.25 14.3096 1.81582 13.75 2.51379 13.75H24.4825L19.1164 8.3839Z" fill="white"/>
<ellipse cx="15.2899" cy="14.9058" rx="14.7101" ry="14.9058" fill="#DE070C"/>
<path d="M19.8896 7.85976C17.0863 7.31727 14.175 7.31727 11.3717 7.85976C10.1317 8.131 8.56827 9.64996 8.29872 10.8434C7.81351 13.1761 7.81351 15.563 8.29872 17.8957C8.62218 19.0892 10.1856 20.6081 11.3717 20.8794C11.4256 20.8794 11.4795 20.9336 11.4795 20.9879V24.4055C11.4795 24.5683 11.6951 24.6768 11.803 24.514L13.4203 22.8323C13.4203 22.8323 14.7142 21.4761 14.9298 21.2591C14.9298 21.2591 14.9837 21.2049 15.0376 21.2049C16.655 21.2591 18.3262 21.0964 19.9436 20.8251C21.1835 20.5539 22.7469 19.0349 23.0165 17.8415C23.5017 15.5088 23.5017 13.1219 23.0165 10.7892C22.693 9.64996 21.1296 8.131 19.8896 7.85976ZM19.9436 18.0585C19.674 18.601 19.3505 19.0349 18.8114 19.3062C18.6497 19.3604 18.488 19.4147 18.3262 19.4689C18.1106 19.4147 17.9488 19.3604 17.7871 19.3062C16.0619 18.601 14.4446 17.6245 13.1507 16.214C12.4499 15.4003 11.8569 14.4781 11.3717 13.5016C11.156 13.0134 10.9404 12.5794 10.7786 12.0911C10.6169 11.6571 10.8865 11.2232 11.156 10.8977C11.4256 10.5722 11.749 10.3552 12.1264 10.1924C12.396 10.0297 12.6655 10.1382 12.8812 10.3552C13.3125 10.8977 13.7438 11.4402 14.0672 12.0369C14.2829 12.4166 14.229 12.8506 13.8516 13.1219C13.7438 13.1761 13.6898 13.2304 13.582 13.3389C13.5281 13.3931 13.4203 13.4473 13.3664 13.5558C13.2586 13.7186 13.2586 13.8813 13.3125 14.0441C13.7438 15.2918 14.5524 16.2683 15.7924 16.8108C16.008 16.9192 16.1698 16.9735 16.4393 16.9735C16.8167 16.9192 16.9784 16.4853 17.248 16.2683C17.5175 16.0513 17.841 16.0513 18.1645 16.214C18.434 16.3768 18.7036 16.5938 19.0271 16.8108C19.2966 17.0277 19.5662 17.1905 19.8357 17.4075C19.9975 17.516 20.0514 17.7872 19.9436 18.0585ZM17.6793 13.9898C17.5715 13.9898 17.6254 13.9898 17.6793 13.9898C17.4636 13.9898 17.4097 13.8813 17.3558 13.7186C17.3558 13.6101 17.3558 13.4473 17.3019 13.3389C17.248 13.1219 17.1402 12.9049 16.9245 12.7421C16.8167 12.6879 16.7089 12.6336 16.6011 12.5794C16.4393 12.5251 16.3315 12.5251 16.1698 12.5251C16.008 12.4709 15.9541 12.3624 15.9541 12.1996C15.9541 12.0911 16.1159 11.9826 16.2237 11.9826C17.0863 12.0369 17.7332 12.5251 17.841 13.5558C17.841 13.6101 17.841 13.7186 17.841 13.7728C17.841 13.8813 17.7871 13.9898 17.6793 13.9898ZM17.1402 11.6029C16.8706 11.4944 16.6011 11.3859 16.2776 11.3317C16.1698 11.3317 16.008 11.2774 15.9002 11.2774C15.7385 11.2774 15.6307 11.1689 15.6846 11.0062C15.6846 10.8434 15.7924 10.7349 15.9541 10.7892C16.4932 10.8434 16.9784 10.9519 17.4636 11.1689C18.434 11.6571 18.9732 12.4709 19.1349 13.5558C19.1349 13.6101 19.1349 13.6643 19.1349 13.7186C19.1349 13.8271 19.1349 13.9356 19.1349 14.0983C19.1349 14.1526 19.1349 14.2068 19.1349 14.2611C19.081 14.4781 18.7036 14.5323 18.6497 14.2611C18.6497 14.2068 18.5958 14.0983 18.5958 14.0441C18.5958 13.5558 18.488 13.0676 18.2723 12.6336C17.9488 12.1454 17.5715 11.8199 17.1402 11.6029ZM20.0514 14.8578C19.8896 14.8578 19.7818 14.6951 19.7818 14.5323C19.7818 14.2068 19.7279 13.8813 19.674 13.5558C19.4584 11.8199 18.0567 10.4094 16.3854 10.1382C16.1159 10.0839 15.8463 10.0839 15.6307 10.0297C15.4689 10.0297 15.2533 10.0297 15.1994 9.8127C15.1454 9.64996 15.3072 9.48721 15.4689 9.48721C15.5228 9.48721 15.5767 9.48721 15.5767 9.48721C17.7871 9.54146 15.6846 9.48721 15.5767 9.48721C17.841 9.54146 19.7279 11.0604 20.1053 13.3389C20.1592 13.7186 20.2131 14.0983 20.2131 14.5323C20.3209 14.6951 20.2131 14.8578 20.0514 14.8578Z" fill="#FDE6E7"/>
</g>
<defs>
<clipPath id="clip0">
<rect width="30" height="30" fill="white"/>
</clipPath>
</defs>
</svg>
